<svg xmlns="http://www.w3.org/2000/svg" viewBox="0 0 950 500" width="950" height="500">
  <defs>
    <!-- 5-pointed star centered at origin -->
    <polygon id="star" points="0,-5.5 1.3,-1.7 5.4,-1.7 2.1,0.7 3.3,4.5 0,2.1 -3.3,4.5 -2.1,0.7 -5.4,-1.7 -1.3,-1.7" fill="#FFF"/>
  </defs>
  <!-- 13 Stripes - 7 red, 6 white -->
  <rect width="950" height="38.46" fill="#B22234"/>
  <rect y="38.46" width="950" height="38.46" fill="#FFF"/>
  <rect y="76.92" width="950" height="38.46" fill="#B22234"/>
  <rect y="115.38" width="950" height="38.46" fill="#FFF"/>
  <rect y="153.84" width="950" height="38.46" fill="#B22234"/>
  <rect y="192.30" width="950" height="38.46" fill="#FFF"/>
  <rect y="230.76" width="950" height="38.46" fill="#B22234"/>
  <rect y="269.22" width="950" height="38.46" fill="#FFF"/>
  <rect y="307.68" width="950" height="38.46" fill="#B22234"/>
  <rect y="346.14" width="950" height="38.46" fill="#FFF"/>
  <rect y="384.60" width="950" height="38.46" fill="#B22234"/>
  <rect y="423.06" width="950" height="38.46" fill="#FFF"/>
  <rect y="461.52" width="950" height="38.46" fill="#B22234"/>
  <!-- Canton -->
  <rect width="380" height="269.22" fill="#3C3B6E"/>
  <!-- 50 Stars in 9 rows -->
  <g>
    <!-- Row 1 (6 stars) -->
    <use href="#star" x="31.67" y="22.44"/><use href="#star" x="95" y="22.44"/>
    <use href="#star" x="158.33" y="22.44"/><use href="#star" x="221.67" y="22.44"/>
    <use href="#star" x="285" y="22.44"/><use href="#star" x="348.33" y="22.44"/>
    <!-- Row 2 (5 stars) -->
    <use href="#star" x="63.33" y="56.09"/><use href="#star" x="126.67" y="56.09"/>
    <use href="#star" x="190" y="56.09"/><use href="#star" x="253.33" y="56.09"/>
    <use href="#star" x="316.67" y="56.09"/>
    <!-- Row 3 (6 stars) -->
    <use href="#star" x="31.67" y="89.74"/><use href="#star" x="95" y="89.74"/>
    <use href="#star" x="158.33" y="89.74"/><use href="#star" x="221.67" y="89.74"/>
    <use href="#star" x="285" y="89.74"/><use href="#star" x="348.33" y="89.74"/>
    <!-- Row 4 (5 stars) -->
    <use href="#star" x="63.33" y="123.39"/><use href="#star" x="126.67" y="123.39"/>
    <use href="#star" x="190" y="123.39"/><use href="#star" x="253.33" y="123.39"/>
    <use href="#star" x="316.67" y="123.39"/>
    <!-- Row 5 (6 stars) -->
    <use href="#star" x="31.67" y="157.04"/><use href="#star" x="95" y="157.04"/>
    <use href="#star" x="158.33" y="157.04"/><use href="#star" x="221.67" y="157.04"/>
    <use href="#star" x="285" y="157.04"/><use href="#star" x="348.33" y="157.04"/>
    <!-- Row 6 (5 stars) -->
    <use href="#star" x="63.33" y="190.69"/><use href="#star" x="126.67" y="190.69"/>
    <use href="#star" x="190" y="190.69"/><use href="#star" x="253.33" y="190.69"/>
    <use href="#star" x="316.67" y="190.69"/>
    <!-- Row 7 (6 stars) -->
    <use href="#star" x="31.67" y="224.34"/><use href="#star" x="95" y="224.34"/>
    <use href="#star" x="158.33" y="224.34"/><use href="#star" x="221.67" y="224.34"/>
    <use href="#star" x="285" y="224.34"/><use href="#star" x="348.33" y="224.34"/>
    <!-- Row 8 (5 stars) -->
    <use href="#star" x="63.33" y="257.99"/><use href="#star" x="126.67" y="257.99"/>
    <use href="#star" x="190" y="257.99"/><use href="#star" x="253.33" y="257.99"/>
    <use href="#star" x="316.67" y="257.99"/>
  </g>
</svg>